<svg data-name="Layer 1" xmlns="http://www.w3.org/2000/svg" xmlns:xlink="http://www.w3.org/1999/xlink" viewBox="0 0 119.227 94.494">
  <a xlink:href="1.316">
    <path d="M105.707 46.044c-1.069 0-2.123-.164-3.13-.485l-.126-.038a7.445 7.445 0 0 1-.365-.116 6.472 6.472 0 0 1-.99-.45l-.119-.065a10.358 10.358 0 0 1-3.43-2.895 10.234 10.234 0 0 1 .02-12.407 10.29 10.29 0 0 1 4.383-3.31l.17-.072c.522-.22.901-.34 1.198-.378l.328-.054a10.38 10.38 0 0 1 2.063-.207c4.177 0 7.666-1.29 10.087-3.727 2.241-2.256 3.41-5.362 3.38-8.984V0H93.66v8.474c0 1.65-.004 3.3 0 4.95.006 3.336-1.887 7.89-5.358 9.05-2.21.738-4.951-.365-7.299-.095-1.928.222-3.799.881-5.44 1.918-3.297 2.083-5.524 5.626-5.952 9.503-.166 1.495-.073 2.61-.004 3.425.075.907.098 1.18-.22 2.085-.624 1.767-1.96 3.409-3.757 4.622-1.798 1.213-3.866 1.88-5.822 1.88l-.192-.003-.19.003c-1.958 0-4.026-.667-5.823-1.88-1.798-1.212-3.133-2.855-3.758-4.622-.317-.905-.296-1.18-.219-2.085.067-.814.16-1.929-.004-3.425-.428-3.877-2.655-7.419-5.953-9.503a12.993 12.993 0 0 0-5.44-1.918c-2.347-.27-5.088.833-7.298.094-3.471-1.159-5.365-5.713-5.358-9.05.004-1.65 0-3.299 0-4.949V0H.055v12.856c-.03 3.622 1.14 6.728 3.38 8.984 2.42 2.44 5.91 3.727 10.087 3.727.694 0 1.387.07 2.063.208l.327.053c.297.04.677.159 1.198.378l.17.071a10.288 10.288 0 0 1 4.383 3.311 10.234 10.234 0 0 1 .021 12.407c-.912 1.2-2.1 2.2-3.43 2.896l-.12.064c-.365.2-.69.347-.99.45a7.685 7.685 0 0 1-.364.116l-.127.038c-1.006.323-2.06.485-3.13.485C5.434 46.044 0 51.014 0 58.411c0 5.774 2.635 8.77 4.845 10.267 2.697 1.826 5.95 2.344 9.064 2.629l.216.024c.826.107 1.523.277 2.324.565l.386.146.066.024a9.024 9.024 0 0 1 4.947 4.116c.618 1.096 1.046 2.531 1.205 4.038.062.593.104 1.168.144 1.735.03.432.066.916.113 1.402v11.137h25.334V81.381c0-3.37-1.284-6.639-3.668-9.022a11.54 11.54 0 0 0-.766-.7l-.086-.074c-2.746-2.377-6.316-2.44-8.925-2.488h-.028c-.436-.008-.85-.016-1.214-.033l-.392-.06-.838-.188-.79-.243-.852-.34a10.523 10.523 0 0 1-2.464-1.559l-.166-.142c-2.36-2.109-3.531-4.708-3.58-7.945a10.447 10.447 0 0 1 2.142-6.34 10.64 10.64 0 0 1 5.422-3.749c2.164-.636 6.2-.652 8.147-.03 3.546 1.13 6.063 4.382 6.26 8.09.017.307.005.628-.009 1.005-.04 1.087-.096 2.577.533 4.461a12.975 12.975 0 0 0 12.243 8.798 12.977 12.977 0 0 0 12.243-8.798c.629-1.882.574-3.372.533-4.462-.013-.376-.025-.699-.009-1.004.198-3.708 2.713-6.96 6.26-8.09 1.948-.622 5.983-.606 8.148.03a10.644 10.644 0 0 1 5.422 3.75 10.448 10.448 0 0 1 2.141 6.34c-.049 3.236-1.22 5.834-3.58 7.944l-.165.142a10.572 10.572 0 0 1-2.464 1.56l-.853.339-.79.243-.838.187-.392.06c-.363.018-.778.026-1.214.034h-.028c-2.607.047-6.179.11-8.924 2.488l-.086.074c-.14.12-.315.27-.505.448-.089.083-.175.168-.261.252-2.385 2.383-3.669 5.652-3.669 9.022v13.113h25.335V83.357c.047-.485.082-.97.112-1.402.041-.566.082-1.14.144-1.735.16-1.507.588-2.942 1.205-4.038a9.02 9.02 0 0 1 4.947-4.116l.067-.024.386-.146c.8-.287 1.497-.456 2.324-.565l.215-.024c3.114-.285 6.367-.803 9.064-2.63 2.21-1.496 4.846-4.492 4.846-10.266 0-7.397-5.435-12.367-13.524-12.367h.005Z" style="fill:#fff;stroke-width:0"/>
  </a>
</svg>
